<?xml version="1.0" ?><svg enable-background="new 0 0 64 64" id="Layer_1_1_" version="1.1" viewBox="0 0 64 64" xml:space="preserve" xmlns="http://www.w3.org/2000/svg" xmlns:xlink="http://www.w3.org/1999/xlink"><g><g><rect fill="#333333" height="2" width="22" x="21" y="34"/></g><g><rect fill="#333333" height="2" width="22" x="21" y="51"/></g><g><path d="M41,63H23c-1.7,0-3-1.3-3-3V32c0-1.2,0.4-3.4,1.2-4.6l3.1-4.1C25,22.6,25,22,25,22l0-0.1L26.9,8H26V1h12v7    h-0.9L39,22c0,0,0,0.6,0.7,1.3l0.1,0.1l3,4c0.8,1.2,1.2,3.4,1.2,4.6v28C44,61.7,42.7,63,41,63z M25.8,24.7l-3,3.9    C22.4,29.2,22,31,22,32v28c0,0.6,0.4,1,1,1h18c0.6,0,1-0.4,1-1V32c0-1-0.4-2.8-0.8-3.4l-2.9-3.9c-1.1-1.1-1.2-2.2-1.2-2.6L34.9,6    H36V3h-8v3h1.1L27,22.1C27,22.4,26.8,23.6,25.8,24.7z" fill="#333333"/></g><g><rect fill="#333333" height="2" width="8" x="28" y="6"/></g><g><rect fill="#333333" height="2" width="8" x="24" y="58"/></g><g><path d="M26.8,28.6l-1.7-1.1l2.1-3.2c0,0,0.7-0.8,0.7-2.3v-2h2v2c0,2.1-0.9,3.3-1.2,3.6L26.8,28.6z" fill="#333333"/></g><g><path d="M25,33h-2c0-3.2,1.1-4.5,1.3-4.7l1.4,1.4L25,29l0.7,0.7C25.7,29.7,25,30.6,25,33z" fill="#333333"/></g><g><rect fill="#333333" height="2" width="2" x="38" y="58"/></g><g><rect fill="#333333" height="2" width="2" x="34" y="58"/></g></g></svg>