<?xml version="1.0" ?><svg enable-background="new 0 0 24 24" id="Layer_1" version="1.1" viewBox="0 0 24 24" xml:space="preserve" xmlns="http://www.w3.org/2000/svg" xmlns:xlink="http://www.w3.org/1999/xlink"><g><path d="M17,16h-0.3510742C16.3034058,15.2782593,15.7217407,14.6965942,15,14.3510742v-2.7340698   c0.1427002-0.092041,0.2782593-0.1967773,0.4013672-0.3196411c0.3613281-0.3613281,0.6015625-0.8388672,0.6757812-1.3442383   l0.8857422-5.9296875C16.9873047,3.8535156,17,3.6826172,17,3.5c0-0.9370117-0.3652344-1.8168945-1.0292969-2.4785156   C15.3105469,0.3623047,14.4335938,0,13.5,0c-0.0029297,0-0.0068359,0-0.0107422,0   C11.5673828,0.0058594,10.0019531,1.5742188,10,3.5092773c0,0.1723633,0.0126953,0.3442383,0.0371094,0.5146484L10.90625,9.9536133   c0.0742188,0.5048828,0.3144531,0.9819336,0.6748047,1.3427734C11.7072754,11.4229126,11.8497925,11.5296021,12,11.6240845   v2.7269897C11.2782593,14.6965942,10.6965942,15.2782593,10.3510742,16H8c0-1.1030273-0.8974609-2-2-2c0-1.1030273-0.8974609-2-2-2   H2.5C2.2236328,12,2,12.2236328,2,12.5v11C2,23.7763672,2.2236328,24,2.5,24H4c1.1025391,0,2-0.8969727,2-2   c1.1025391,0,2-0.8969727,2-2h3.0582886c0.6312866,0.6166382,1.4917603,1,2.4417114,1s1.8104248-0.3833618,2.4417114-1H17   c0.5517578,0,1,0.4487305,1,1v2.5c0,0.2763672,0.2236328,0.5,0.5,0.5h3c0.2763672,0,0.5-0.2236328,0.5-0.5V21   C22,18.2431641,19.7568359,16,17,16z" fill="#303C42"/><path d="M5,22c0,0.5512695-0.4482422,1-1,1H3V13h1c0.5517578,0,1,0.4487305,1,1V22z" fill="#BA7118"/><path d="M7,20c0,0.5512695-0.4482422,1-1,1v-6c0.5517578,0,1,0.4487305,1,1V20z" fill="#BA7118"/><path d="M4,22H3v1h1c0.5517578,0,1-0.4487305,1-1v-0.7999878C5,21.6409912,4.5517578,22,4,22z" opacity="0.1"/><path d="M4,13H3v1h1c0.5517578,0,1,0.3589478,1,0.7999878V14C5,13.4487305,4.5517578,13,4,13z" fill="#FFFFFF" opacity="0.2"/><path d="M6,20.3999634V21c0.5517578,0,1-0.4487305,1-1v-0.4000244C7,20.0410156,6.5517578,20.3999634,6,20.3999634z" opacity="0.1"/><path d="M6,15v0.5999756c0.5517578,0,1,0.3590088,1,0.7999878V16C7,15.4487305,6.5517578,15,6,15z" fill="#FFFFFF" opacity="0.2"/><path d="M11.0273438,3.8789062C11.0087891,3.7568359,11,3.6328125,11,3.4975586   C11.0019531,2.1245117,12.1201172,1.0039062,13.4931641,1C13.4951172,1,13.4980469,1,13.5,1   c0.6660156,0,1.2929688,0.2587891,1.7646484,0.7294922C15.7392578,2.2021484,16,2.8310547,16,3.5112305   c0,0.1225586-0.0087891,0.2446289-0.0263672,0.3652344l-0.8847656,5.9296875   c-0.0439453,0.2949219-0.1845703,0.5737305-0.3945312,0.7841797C14.4296875,10.8544922,14.078125,11,13.7050781,11h-0.4267578   c-0.3691406,0-0.7294922-0.1494141-0.9892578-0.4101562c-0.2138672-0.2138672-0.3496094-0.484375-0.3935547-0.7817383   L11.0273438,3.8789062z" fill="#C7C9C8"/><path d="M12.8955078,10.8081055l-0.8681641-5.9291992   C12.0087891,4.7568359,12,4.6328125,12,4.4975586C12.0019531,3.1245117,13.1201172,2.0039062,14.4931641,2   C14.4951172,2,14.4980469,2,14.5,2c0.4230957,0,0.8251953,0.1151123,1.1869507,0.3119507   c-0.1141357-0.2098389-0.2484741-0.4093628-0.4223022-0.5824585C14.7929688,1.2587891,14.1660156,1,13.5,1   c-0.0019531,0-0.0048828,0-0.0068359,0C12.1201172,1.0039062,11.0019531,2.1245117,11,3.4975586   c0,0.1352539,0.0087891,0.2592773,0.0273438,0.3813477l0.8681641,5.9291992   c0.0439453,0.2973633,0.1796875,0.5678711,0.3935547,0.7817383c0.1763306,0.177002,0.4049072,0.2787476,0.6452026,0.3412476   C12.9240112,10.8890381,12.9019165,10.8514404,12.8955078,10.8081055z" fill="#FFFFFF" opacity="0.2"/><path d="M13,11.9721069C13.0926514,11.9831543,13.1845093,12,13.2783203,12h0.4267578   C13.8052979,12,13.9021606,11.9832153,14,11.9711914v2.0793457C13.8352661,14.0266724,13.6712036,14,13.5,14   s-0.3352661,0.0266724-0.5,0.0505371V11.9721069z" fill="#C7C9C8"/><path d="M8,17h2.0505371C10.0266724,17.1647339,10,17.3287964,10,17.5   c0,0.5388184,0.1325684,1.0435791,0.3510742,1.5H8V17z" fill="#A4A7A9"/><circle cx="13.5" cy="17.5" fill="#C7C9C8" r="2.5"/><path d="M15.3320312,15.8118286C15.336853,15.875061,15.3510742,15.9355469,15.3510742,16   c0,1.378418-1.1210938,2.5-2.5,2.5c-0.7261353,0-1.374939-0.3161011-1.8320312-0.8118286   C11.1171875,18.977417,12.1855469,20,13.5,20c1.3789062,0,2.5-1.121582,2.5-2.5   C16,16.8474121,15.7429199,16.2575073,15.3320312,15.8118286z" opacity="0.1"/><path d="M21,23h-2v-2c0-1.1030273-0.8974609-2-2-2h-0.3510742C16.8674316,18.5435791,17,18.0388184,17,17.5   c0-0.1712036-0.0266724-0.3352661-0.0505371-0.5H17c2.2060547,0,4,1.7944336,4,4V23z" fill="#A4A7A9"/><path d="M19.1166382,17.6196899c0.7579956,0.7279053,1.234436,1.7463989,1.234436,2.8803101v0.6856079   c0,0.7258911-0.5884399,1.3143921-1.3143921,1.3143921H19V23h2v-2C21,19.5734253,20.2437134,18.3279419,19.1166382,17.6196899z" opacity="0.1"/><linearGradient gradientUnits="userSpaceOnUse" id="SVGID_1_" x1="3.2802978" x2="24.0066833" y1="9.6430874" y2="19.3079605"><stop offset="0" style="stop-color:#FFFFFF;stop-opacity:0.2"/><stop offset="1" style="stop-color:#FFFFFF;stop-opacity:0"/></linearGradient><path d="M17,16h-0.3510742C16.3034058,15.2782593,15.7217407,14.6965942,15,14.3510742v-2.7340698   c0.1427002-0.092041,0.2782593-0.1967773,0.4013672-0.3196411c0.3613281-0.3613281,0.6015625-0.8388672,0.6757812-1.3442383   l0.8857422-5.9296875C16.9873047,3.8535156,17,3.6826172,17,3.5c0-0.9370117-0.3652344-1.8168945-1.0292969-2.4785156   C15.3105469,0.3623047,14.4335938,0,13.5,0c-0.0029297,0-0.0068359,0-0.0107422,0   C11.5673828,0.0058594,10.0019531,1.5742188,10,3.5092773c0,0.1723633,0.0126953,0.3442383,0.0371094,0.5146484L10.90625,9.9536133   c0.0742188,0.5048828,0.3144531,0.9819336,0.6748047,1.3427734C11.7072754,11.4229126,11.8497925,11.5296021,12,11.6240845   v2.7269897C11.2782593,14.6965942,10.6965942,15.2782593,10.3510742,16H8c0-1.1030273-0.8974609-2-2-2c0-1.1030273-0.8974609-2-2-2   H2.5C2.2236328,12,2,12.2236328,2,12.5v11C2,23.7763672,2.2236328,24,2.5,24H4c1.1025391,0,2-0.8969727,2-2   c1.1025391,0,2-0.8969727,2-2h3.0582886c0.6312866,0.6166382,1.4917603,1,2.4417114,1s1.8104248-0.3833618,2.4417114-1H17   c0.5517578,0,1,0.4487305,1,1v2.5c0,0.2763672,0.2236328,0.5,0.5,0.5h3c0.2763672,0,0.5-0.2236328,0.5-0.5V21   C22,18.2431641,19.7568359,16,17,16z" fill="url(#SVGID_1_)"/></g><g/><g/><g/><g/><g/><g/><g/><g/><g/><g/><g/><g/><g/><g/><g/></svg>