<svg width="128" height="128" xmlns="http://www.w3.org/2000/svg">

 <g>
  <title>background</title>
  <rect fill="none" id="canvas_background" height="402" width="582" y="-1" x="-1"/>
 </g>
 <g>
  <title>Layer 1</title>
  <circle r="64" id="circle" fill="none" cy="64" cx="63.816093"/>
  <path id="wrench" fill="#999999" d="m91.7,42l-6.6,6.6c-1.6,1.6 -4.1,1.6 -5.7,0s-1.6,-4.1 0,-5.7l6.6,-6.6c-4.7,-2.3 -10.5,-1.5 -14.4,2.4c-3.9,3.9 -4.7,9.7 -2.4,14.4l-25,25c-2.4,-0.5 -5.1,0.1 -7,2c-2.9,2.9 -2.9,7.7 0,10.6c2.9,2.9 7.7,2.9 10.6,0c1.9,-1.9 2.6,-4.5 2,-7l25,-25c4.7,2.3 10.5,1.5 14.4,-2.4s4.8,-9.6 2.5,-14.3zm-46.5,45.9c-1.4,1.4 -3.6,1.4 -4.9,0c-1.4,-1.4 -1.4,-3.6 0,-4.9s3.6,-1.4 4.9,0s1.4,3.5 0,4.9z"/>
  <polygon points="89.2,85.4 54.3,50.6 55.1,49.8 53,43.6 39.7,36.9 35,41.6 42.1,55.3 47.9,57 48.7,56.2     83.5,91.1   " id="base" fill="#4c4c4c"/>
  <path id="line" fill="#56aaff" d="m89,90.9l0,0c-2.3,2.3 -6.2,2.3 -8.5,0l-12.7,-12.8c-2.3,-2.3 -2.3,-6.2 0,-8.5l0,0c2.3,-2.3 6.2,-2.3 8.5,0l12.7,12.8c2.3,2.3 2.3,6.1 0,8.5z"/>
 </g>
</svg>