<?xml version="1.0" ?><svg enable-background="new 0 0 64 64" height="64px" version="1.1" viewBox="0 0 64 64" width="64px" xml:space="preserve" xmlns="http://www.w3.org/2000/svg" xmlns:xlink="http://www.w3.org/1999/xlink"><g id="Layer_1"><g><circle cx="32" cy="32" fill="#4F5D73" r="32"/></g><g><g><g><path d="M47.719,40.585c0.23-0.369,0.603-0.614,1.015-0.74c0.425-0.117,0.929-0.096,1.398,0.118l2.545,1.167      c0.469,0.214,0.799,0.614,0.942,1.109c0.157,0.5,0.086,1.072-0.223,1.58c-0.3,0.513-0.75,0.87-1.23,1.008      c-0.504,0.124-1.021,0.042-1.444-0.252l-2.303-1.593c-0.423-0.294-0.695-0.714-0.804-1.135      C47.484,41.409,47.498,40.959,47.719,40.585z" fill="#E0E0D1"/></g></g><g><g><path d="M16.446,40.788c0.461,0.72,0.138,1.814-0.671,2.409l-2.282,1.622c-0.853,0.626-2.043,0.295-2.681-0.723      c-0.611-1.033-0.238-2.279,0.686-2.699l2.529-1.202C14.979,39.76,16.009,40.054,16.446,40.788z" fill="#E0E0D1"/></g></g><g><g><path d="M13.97,31.782c0.006,0.854-0.735,1.633-1.774,1.746l-2.788,0.259c-1.01,0.112-1.962-0.77-1.971-1.969      c0.031-1.199,0.902-2.091,1.928-1.991l2.791,0.226C13.182,30.151,14.002,30.926,13.97,31.782z" fill="#E0E0D1"/></g></g><g><g><path d="M16.336,22.739c-0.23,0.369-0.603,0.614-1.015,0.74c-0.425,0.117-0.929,0.096-1.398-0.118l-2.545-1.167      c-0.469-0.214-0.799-0.614-0.942-1.109c-0.157-0.5-0.086-1.072,0.223-1.58c0.3-0.513,0.75-0.87,1.23-1.008      c0.504-0.124,1.021-0.042,1.444,0.252l2.303,1.593c0.423,0.294,0.695,0.714,0.804,1.135      C16.571,21.915,16.557,22.365,16.336,22.739z" fill="#E0E0D1"/></g></g><g><g><path d="M22.901,16.081c-0.72,0.461-1.814,0.138-2.409-0.671l-1.622-2.282c-0.626-0.853-0.295-2.043,0.723-2.681      c1.033-0.611,2.279-0.238,2.699,0.686l1.202,2.529C23.93,14.614,23.635,15.644,22.901,16.081z" fill="#E0E0D1"/></g></g><g><g><path d="M31.908,13.605c-0.854,0.006-1.633-0.735-1.746-1.774l-0.259-2.788c-0.112-1.01,0.77-1.962,1.969-1.971      c1.199,0.031,2.091,0.902,1.991,1.928l-0.226,2.791C33.538,12.816,32.763,13.636,31.908,13.605z" fill="#E0E0D1"/></g></g><g><g><path d="M40.951,15.97c-0.369-0.23-0.614-0.603-0.74-1.015c-0.117-0.425-0.096-0.929,0.118-1.398l1.167-2.545      c0.214-0.469,0.614-0.799,1.109-0.942c0.5-0.157,1.072-0.086,1.58,0.223c0.513,0.3,0.87,0.75,1.008,1.23      c0.124,0.504,0.042,1.021-0.252,1.444l-1.593,2.303c-0.294,0.423-0.714,0.695-1.135,0.804      C41.774,16.206,41.324,16.191,40.951,15.97z" fill="#E0E0D1"/></g></g><g><g><path d="M47.609,22.536c-0.461-0.72-0.138-1.814,0.671-2.409l2.282-1.622c0.853-0.626,2.043-0.295,2.681,0.723      c0.611,1.033,0.238,2.279-0.686,2.699l-2.529,1.202C49.076,23.565,48.046,23.27,47.609,22.536z" fill="#E0E0D1"/></g></g><g><g><path d="M50.085,31.542c-0.006-0.854,0.735-1.633,1.774-1.746l2.788-0.259c1.01-0.112,1.962,0.77,1.971,1.969      c-0.031,1.199-0.902,2.091-1.928,1.991l-2.791-0.226C50.873,33.173,50.053,32.398,50.085,31.542z" fill="#E0E0D1"/></g></g></g><g opacity="0.2"><path d="M41.633,24.367c-0.413-0.413-1.06-0.485-1.545-0.177l-4.653,2.905l-3.107,1.938c0,0-0.001,0-0.001,0    C32.217,29.026,32.112,29,32,29c-2.761,0-5,2.239-5,5c0,0.113,0.026,0.218,0.033,0.329c0.165,2.495,2.145,4.474,4.64,4.638    C31.783,38.974,31.888,39,32,39c2.761,0,5-2.239,5-5c0-0.112-0.026-0.217-0.033-0.327c0,0,0-0.001,0-0.001l1.938-3.105    l2.905-4.655C42.12,25.417,42.047,24.777,41.633,24.367z" fill="#231F20"/></g><g><path d="M41.633,22.367c-0.413-0.413-1.06-0.485-1.545-0.177l-4.653,2.905l-3.107,1.938c0,0-0.001,0-0.001,0    C32.217,27.026,32.112,27,32,27c-2.761,0-5,2.239-5,5c0,0.113,0.026,0.218,0.033,0.329c0.165,2.495,2.145,4.474,4.64,4.638    C31.783,36.974,31.888,37,32,37c2.761,0,5-2.239,5-5c0-0.112-0.026-0.217-0.033-0.327c0,0,0-0.001,0-0.001l1.938-3.105    l2.905-4.655C42.12,23.417,42.047,22.777,41.633,22.367z" fill="#C75C5C"/></g><g><circle cx="32" cy="32" fill="#FFFFFF" r="5"/></g><g><path d="M40,49c0,1.657-1.343,3-3,3H27c-1.657,0-3-1.343-3-3v-2c0-1.657,1.343-3,3-3h10c1.657,0,3,1.343,3,3V49z" fill="#F5CF87"/></g></g><g id="Layer_2"/></svg>