<svg width="48" height="48" xmlns="http://www.w3.org/2000/svg">
 <!-- Created with Method Draw - http://github.com/duopixel/Method-Draw/ -->
 <g>
  <title>Layer 1</title>
  <path id="svg_3" fill="#241F20" d="m35.74,1.433l-1.459,2.072c6.334,3.444 10.75,9.96 11.236,17.557l2.461,-1.042c-0.806,-8.009 -5.539,-14.843 -12.238,-18.587z"/>
  <path id="svg_4" fill="#241F20" d="m32.838,5.621l-1.465,2.08c5.41,2.707 9.125,8.295 9.125,14.754c0,0.259 -0.021,0.512 -0.035,0.766l2.562,-1.05c-0.105,-7.198 -4.211,-13.409 -10.187,-16.55z"/>
  <path id="svg_5" fill="#241F20" d="m16.579,7.723l-1.472,-2.073c-5.93,3.141 -10.002,9.314 -10.128,16.465l2.558,1.06c-0.013,-0.239 -0.034,-0.476 -0.034,-0.72c0,-6.44 3.694,-12.016 9.076,-14.732z"/>
  <path id="svg_6" fill="#241F20" d="m13.726,3.512l-1.463,-2.079c-6.705,3.745 -11.438,10.586 -12.241,18.601l2.462,1.038c0.483,-7.601 4.906,-14.114 11.242,-17.56z"/>
  <path id="svg_12" fill="#241F20" d="m16.579,7.723l-1.472,-2.073c-5.93,3.141 -10.002,9.314 -10.128,16.465l2.558,1.06c-0.013,-0.239 -0.034,-0.476 -0.034,-0.72c0,-6.44 3.694,-12.016 9.076,-14.732z"/>
  <path id="svg_8" fill="#241F20" d="m35.74,1.433l-1.459,2.072c6.334,3.444 10.75,9.96 11.236,17.557l2.461,-1.042c-0.806,-8.009 -5.539,-14.843 -12.238,-18.587z"/>
  <path id="svg_9" fill="#241F20" d="m32.838,5.621l-1.465,2.08c5.41,2.707 9.125,8.295 9.125,14.754c0,0.259 -0.021,0.512 -0.035,0.766l2.562,-1.05c-0.105,-7.198 -4.211,-13.409 -10.187,-16.55z"/>
  <path id="svg_10" fill="#241F20" d="m16.579,7.723l-1.472,-2.073c-5.93,3.141 -10.002,9.314 -10.128,16.465l2.558,1.06c-0.013,-0.239 -0.034,-0.476 -0.034,-0.72c0,-6.44 3.694,-12.016 9.076,-14.732z"/>
  <path id="svg_11" fill="#241F20" d="m13.726,3.512l-1.463,-2.079c-6.705,3.745 -11.438,10.586 -12.241,18.601l2.462,1.038c0.483,-7.601 4.906,-14.114 11.242,-17.56z"/>
  <path id="svg_13" fill="#241F20" d="m16.579,7.723l-1.472,-2.073c-5.93,3.141 -10.002,9.314 -10.128,16.465l2.558,1.06c-0.013,-0.239 -0.034,-0.476 -0.034,-0.72c0,-6.44 3.694,-12.016 9.076,-14.732z"/>
  <path id="svg_14" fill="#241F20" d="m35.74,1.433l-1.459,2.072c6.334,3.444 10.75,9.96 11.236,17.557l2.461,-1.042c-0.806,-8.009 -5.539,-14.843 -12.238,-18.587z"/>
  <path id="svg_15" fill="#241F20" d="m32.838,5.621l-1.465,2.08c5.41,2.707 9.125,8.295 9.125,14.754c0,0.259 -0.021,0.512 -0.035,0.766l2.562,-1.05c-0.105,-7.198 -4.211,-13.409 -10.187,-16.55z"/>
  <path id="svg_16" fill="#241F20" d="m16.579,7.723l-1.472,-2.073c-5.93,3.141 -10.002,9.314 -10.128,16.465l2.558,1.06c-0.013,-0.239 -0.034,-0.476 -0.034,-0.72c0,-6.44 3.694,-12.016 9.076,-14.732z"/>
  <path id="svg_17" fill="#241F20" d="m13.726,3.512l-1.463,-2.079c-6.705,3.745 -11.438,10.586 -12.241,18.601l2.462,1.038c0.483,-7.601 4.906,-14.114 11.242,-17.56z"/>
  <path id="svg_18" fill="#241F20" d="m16.579,7.723l-1.472,-2.073c-5.93,3.141 -10.002,9.314 -10.128,16.465l2.558,1.06c-0.013,-0.239 -0.034,-0.476 -0.034,-0.72c0,-6.44 3.694,-12.016 9.076,-14.732z"/>
  <rect id="svg_19" height="20.27289" width="23.789615" y="16.001172" x="12.036237" fill-opacity="null" stroke-opacity="null" stroke-width="null" stroke="null" fill="#241F20"/>
  <rect stroke="null" transform="rotate(-0.01302622351795435 17.242370605491825,21.862380981448723) " id="svg_20" height="7.860916" width="7.378229" y="17.931924" x="13.553256" fill-opacity="null" stroke-opacity="null" stroke-width="null" fill="#241F20"/>
  <rect stroke="null" id="svg_21" height="17.169897" width="21.16931" y="17.311325" x="13.34639" stroke-opacity="null" stroke-width="null" fill="#ffffff"/>
  <rect stroke="null" id="svg_22" height="4.921082" width="8.534081" y="19.258467" x="23.564784" stroke-opacity="null" stroke-width="null" fill="#e5e5e5"/>
  <ellipse stroke="null" ry="1.004283" rx="1.036029" id="svg_23" cy="21.605682" cx="17.251229" stroke-opacity="null" stroke-width="null" fill="#ff0000"/>
  <ellipse ry="0.034478" id="svg_24" cy="29.55091" cx="20.655663" stroke-opacity="null" stroke-width="null" stroke="null" fill="#ff0000"/>
  <ellipse stroke="null" ry="2.128388" rx="2.231821" id="svg_25" cy="28.398453" cx="23.38863" stroke-opacity="null" stroke-width="null" fill="#999999"/>
  <ellipse stroke="null" ry="1.172242" rx="1.241197" id="svg_26" cy="31.860916" cx="17.069981" stroke-opacity="null" stroke-width="null" fill="#666666"/>
  <rect stroke="null" id="svg_30" height="0.206866" width="13.446304" y="30.688673" x="16.932071" stroke-opacity="null" stroke-width="null" fill="#666666"/>
  <rect stroke="null" id="svg_31" height="0.206866" width="13.446304" y="32.826291" x="16.932071" stroke-opacity="null" stroke-width="null" fill="#666666"/>
  <ellipse stroke="null" ry="1.172242" rx="1.275675" id="svg_33" cy="31.855453" cx="29.866673" stroke-opacity="null" stroke-width="null" fill="#666666"/>
  <rect id="svg_34" height="1.079365" width="1.968254" y="19.936508" x="24.095238" stroke-opacity="null" stroke-width="null" stroke="null" fill="#ff7f00"/>
  <ellipse ry="0.444444" rx="0.444444" id="svg_35" cy="20.507937" cx="28.793651" stroke-opacity="null" stroke-width="null" stroke="null" fill="#666666"/>
  <ellipse ry="0.444444" rx="0.444444" id="svg_37" cy="20.507937" cx="30.190476" stroke-opacity="null" stroke-width="null" stroke="null" fill="#666666"/>
  <ellipse ry="0.444444" rx="0.444444" id="svg_38" cy="22.222222" cx="25.746032" stroke-opacity="null" stroke-width="null" stroke="null" fill="#666666"/>
  <ellipse ry="0.444444" rx="0.444444" id="svg_39" cy="22.15873" cx="27.714286" stroke-opacity="null" stroke-width="null" stroke="null" fill="#666666"/>
  <ellipse ry="0.444444" rx="0.444444" id="svg_40" cy="22.222222" cx="29.238095" stroke-opacity="null" stroke-width="null" stroke="null" fill="#666666"/>
  <ellipse ry="0.444444" rx="0.444444" id="svg_41" cy="22.222222" cx="30.761905" stroke-opacity="null" stroke-width="null" stroke="null" fill="#666666"/>
  <ellipse ry="0.444444" rx="0.444444" id="svg_42" cy="23.428571" cx="26.571428" stroke-opacity="null" stroke-width="null" stroke="null" fill="#666666"/>
  <ellipse ry="0.444444" rx="0.444444" id="svg_43" cy="23.365079" cx="28.349206" stroke-opacity="null" stroke-width="null" stroke="null" fill="#666666"/>
  <ellipse stroke="null" ry="0.666667" rx="0.644327" id="svg_44" cy="23.501469" cx="30.016461" stroke-opacity="null" stroke-width="null" fill="#666666"/>
  <ellipse stroke="null" transform="rotate(1.0416364669799805 12.990539550780698,37.659305572509766) " ry="1.412608" rx="1.395405" id="svg_46" cy="37.659301" cx="12.990539" stroke-opacity="null" stroke-width="null" fill="#000000"/>
  <ellipse stroke="null" transform="rotate(1.0416364669799805 35.00945663452179,37.65930557250969) " ry="1.412608" rx="1.395405" id="svg_47" cy="37.659301" cx="35.009459" stroke-opacity="null" stroke-width="null" fill="#000000"/>
 </g>
</svg>